<?xml version="1.0" encoding="utf-8"?><!-- Uploaded to: SVG Repo, www.svgrepo.com, Generator: SVG Repo Mixer Tools -->
<svg width="30px" height="30px" viewBox="0 0 100 100"
      xmlns="http://www.w3.org/2000/svg"
      xmlns:xlink="http://www.w3.org/1999/xlink" aria-hidden="true" role="img" class="iconify iconify--gis" preserveAspectRatio="xMidYMid meet">
      <path d="M43 0v13.166C27.944 16.03 16.03 27.944 13.166 43H0v14h13.166C16.03 72.056 27.944 83.97 43 86.834V100h14V86.834C72.056 83.97 83.97 72.056 86.834 57H100V43H86.834C83.97 27.944 72.056 16.03 57 13.166V0H43zm7 22.5A27.425 27.425 0 0 1 77.5 50A27.425 27.425 0 0 1 50 77.5A27.425 27.425 0 0 1 22.5 50A27.425 27.425 0 0 1 50 22.5z" fill="#000000"></path>
      <circle r="15" cy="50" cx="50" fill="#000000"></circle>
</svg>